<?xml version="1.0" encoding="UTF-8" standalone="no"?>
<svg
   xmlns:dc="http://purl.org/dc/elements/1.1/"
   xmlns:cc="http://creativecommons.org/ns#"
   xmlns:rdf="http://www.w3.org/1999/02/22-rdf-syntax-ns#"
   xmlns:svg="http://www.w3.org/2000/svg"
   xmlns="http://www.w3.org/2000/svg"
   xmlns:sodipodi="http://sodipodi.sourceforge.net/DTD/sodipodi-0.dtd"
   xmlns:inkscape="http://www.inkscape.org/namespaces/inkscape"
   viewBox="0 0 430.40799 274.54599"
   height="274.54599"
   width="430.40799"
   xml:space="preserve"
   id="svg29"
   version="1.1"
   sodipodi:docname="dnz_tall.ai.svg"
   inkscape:version="0.92.5 (2060ec1f9f, 2020-04-08)"><sodipodi:namedview
     pagecolor="#ffffff"
     bordercolor="#666666"
     borderopacity="1"
     objecttolerance="10"
     gridtolerance="10"
     guidetolerance="10"
     inkscape:pageopacity="0"
     inkscape:pageshadow="2"
     inkscape:window-width="1920"
     inkscape:window-height="1043"
     id="namedview59"
     showgrid="false"
     inkscape:zoom="0.88294815"
     inkscape:cx="527.91588"
     inkscape:cy="-10.603386"
     inkscape:window-x="0"
     inkscape:window-y="0"
     inkscape:window-maximized="1"
     inkscape:current-layer="svg29" /><metadata
     id="metadata35"><rdf:RDF><cc:Work
         rdf:about=""><dc:format>image/svg+xml</dc:format><dc:type
           rdf:resource="http://purl.org/dc/dcmitype/StillImage" /><dc:title /></cc:Work></rdf:RDF></metadata><defs
     id="defs33"><clipPath
       id="clipPath45"
       clipPathUnits="userSpaceOnUse"><path
         id="path43"
         d="M 0,567 H 715 V 0 H 0 Z"
         inkscape:connector-curvature="0" /></clipPath></defs><g
     transform="matrix(1.3333333,0,0,-1.3333333,-246.74853,517.71612)"
     id="g37"><g
       id="g39"><g
         clip-path="url(#clipPath45)"
         id="g41"><g
           transform="translate(191.6708,231.5427)"
           id="g47"><path
             id="path49"
             style="fill:#464647;fill-opacity:1;fill-rule:nonzero;stroke:none"
             d="m 0,0 h 2.692 c 2.684,0 4.914,0.282 6.692,0.846 1.778,0.598 3.385,1.547 4.82,2.845 2.941,2.684 4.41,6.18 4.41,10.487 0,4.342 -1.453,7.862 -4.358,10.563 -2.615,2.41 -6.47,3.615 -11.564,3.615 H 0 Z m -5.974,-5.615 v 39.587 h 8.307 c 3.983,0 7.128,-0.394 9.436,-1.18 2.478,-0.769 4.726,-2.077 6.743,-3.923 C 22.597,25.144 24.64,20.246 24.64,14.178 24.64,8.093 22.512,3.17 18.255,-0.59 16.118,-2.471 13.88,-3.778 11.538,-4.513 9.35,-5.248 6.247,-5.615 2.23,-5.615 Z"
             inkscape:connector-curvature="0" /></g><path
           id="path51"
           style="fill:#464647;fill-opacity:1;fill-rule:nonzero;stroke:none"
           d="m 236.359,225.927 h -5.974 v 39.587 h 5.974 z"
           inkscape:connector-curvature="0" /><g
           transform="translate(272.7929,246.5417)"
           id="g53"><path
             id="path55"
             style="fill:#464647;fill-opacity:1;fill-rule:nonzero;stroke:none"
             d="m 0,0 h 16.357 v -1.308 c 0,-2.974 -0.35,-5.607 -1.05,-7.897 -0.684,-2.119 -1.838,-4.102 -3.461,-5.948 -3.676,-4.137 -8.351,-6.204 -14.026,-6.204 -5.538,0 -10.281,1.999 -14.229,5.999 -3.948,4.016 -5.923,8.837 -5.923,14.461 0,5.743 2.009,10.614 6.025,14.613 4.017,4.017 8.906,6.026 14.666,6.026 3.094,0 5.983,-0.633 8.666,-1.898 2.564,-1.265 5.085,-3.316 7.564,-6.153 L 10.333,7.614 c -3.248,4.324 -7.205,6.487 -11.871,6.487 -4.189,0 -7.701,-1.445 -10.538,-4.333 -2.837,-2.837 -4.256,-6.393 -4.256,-10.665 0,-4.411 1.581,-8.043 4.743,-10.897 2.957,-2.65 6.162,-3.975 9.614,-3.975 2.941,0 5.581,0.992 7.923,2.975 2.342,1.999 3.65,4.393 3.923,7.179 H 0 Z"
             inkscape:connector-curvature="0" /></g><path
           id="path57"
           style="fill:#464647;fill-opacity:1;fill-rule:nonzero;stroke:none"
           d="m 309.2,225.927 h -5.974 v 39.587 h 5.974 z"
           inkscape:connector-curvature="0" /><g
           transform="translate(336.1991,259.8991)"
           id="g59"><path
             id="path61"
             style="fill:#464647;fill-opacity:1;fill-rule:nonzero;stroke:none"
             d="M 0,0 V -33.972 H -5.974 V 0 h -9.101 V 5.615 H 9.077 V 0 Z"
             inkscape:connector-curvature="0" /></g><g
           transform="translate(375.8378,241.1569)"
           id="g63"><path
             id="path65"
             style="fill:#464647;fill-opacity:1;fill-rule:nonzero;stroke:none"
             d="M 0,0 -5.872,13.461 -12.025,0 Z m 2.436,-5.615 h -16.948 l -4.41,-9.614 h -6.435 L -5.77,26.844 13.127,-15.229 H 6.589 Z"
             inkscape:connector-curvature="0" /></g><g
           transform="translate(406.4501,265.5144)"
           id="g67"><path
             id="path69"
             style="fill:#464647;fill-opacity:1;fill-rule:nonzero;stroke:none"
             d="m 0,0 v -33.972 h 11.641 v -5.615 H -5.974 V 0 Z"
             inkscape:connector-curvature="0" /></g><g
           transform="translate(430.3202,225.9274)"
           id="g71"><path
             id="path73"
             style="fill:#464647;fill-opacity:1;fill-rule:nonzero;stroke:none"
             d="M 0,0 V 42.279 L 28.87,12.076 v 27.511 h 5.974 V -2.41 L 5.974,27.716 V 0 Z"
             inkscape:connector-curvature="0" /></g><g
           transform="translate(488.0595,231.5427)"
           id="g75"><path
             id="path77"
             style="fill:#464647;fill-opacity:1;fill-rule:nonzero;stroke:none"
             d="M 0,0 H 18.999 V -5.615 H -9.819 L 9.614,28.356 H -6.641 v 5.616 h 26.076 z"
             inkscape:connector-curvature="0" /></g><g
           transform="translate(197.0614,191.5427)"
           id="g79"><path
             id="path81"
             style="fill:#464647;fill-opacity:1;fill-rule:nonzero;stroke:none"
             d="M 0,0 -2.079,6.11 C -2.552,7.495 -2.866,8.755 -3.182,9.983 H -3.244 C -3.56,8.724 -3.906,7.433 -4.315,6.142 L -6.394,0 Z m 0.566,14.267 h -7.527 v 1.732 H 0.566 Z M -6.961,-2.142 -9.165,-8.818 H -12 l 7.213,21.227 H -1.48 L 5.763,-8.818 H 2.834 l -2.268,6.676 z"
             inkscape:connector-curvature="0" /></g><path
           id="path83"
           style="fill:#464647;fill-opacity:1;fill-rule:nonzero;stroke:none"
           d="m 216.12,190.219 h -7.779 v 2.048 h 7.779 z"
           inkscape:connector-curvature="0" /><g
           transform="translate(225.8534,201.6208)"
           id="g85"><path
             id="path87"
             style="fill:#464647;fill-opacity:1;fill-rule:nonzero;stroke:none"
             d="M 0,0 H -6.456 V 2.331 H 9.259 V 0 H 2.771 V -18.896 H 0 Z"
             inkscape:connector-curvature="0" /></g><path
           id="path89"
           style="fill:#464647;fill-opacity:1;fill-rule:nonzero;stroke:none"
           d="m 244.155,182.724 h -2.74 v 21.228 h 2.74 z"
           inkscape:connector-curvature="0" /><g
           transform="translate(255.621,203.9519)"
           id="g91"><path
             id="path93"
             style="fill:#464647;fill-opacity:1;fill-rule:nonzero;stroke:none"
             d="M 0,0 V -8.882 H 10.267 V 0 h 2.771 v -21.228 h -2.771 v 9.953 H 0 v -9.953 H -2.74 V 0 Z"
             inkscape:connector-curvature="0" /></g><path
           id="path95"
           style="fill:#464647;fill-opacity:1;fill-rule:nonzero;stroke:none"
           d="m 280.097,182.724 h -2.74 v 21.228 h 2.74 z"
           inkscape:connector-curvature="0" /><g
           transform="translate(301.1064,193.2116)"
           id="g97"><path
             id="path99"
             style="fill:#464647;fill-opacity:1;fill-rule:nonzero;stroke:none"
             d="m 0,0 c 0,-4.535 2.457,-8.598 6.771,-8.598 4.346,0 6.803,4 6.803,8.819 0,4.22 -2.205,8.629 -6.771,8.629 C 2.268,8.85 0,4.661 0,0 m 16.472,0.347 c 0,-7.307 -4.441,-11.181 -9.858,-11.181 -5.606,0 -9.543,4.347 -9.543,10.772 0,6.739 4.189,11.148 9.858,11.148 5.795,0 9.543,-4.44 9.543,-10.739"
             inkscape:connector-curvature="0" /></g><g
           transform="translate(346.0868,191.5427)"
           id="g101"><path
             id="path103"
             style="fill:#464647;fill-opacity:1;fill-rule:nonzero;stroke:none"
             d="M 0,0 -2.079,6.11 C -2.552,7.495 -2.866,8.755 -3.182,9.983 H -3.244 C -3.56,8.724 -3.906,7.433 -4.315,6.142 L -6.394,0 Z M -6.961,-2.142 -9.165,-8.818 H -12 l 7.213,21.227 H -1.48 L 5.763,-8.818 H 2.834 l -2.268,6.676 z"
             inkscape:connector-curvature="0" /></g><g
           transform="translate(360.1054,193.2116)"
           id="g105"><path
             id="path107"
             style="fill:#464647;fill-opacity:1;fill-rule:nonzero;stroke:none"
             d="m 0,0 c 0,-4.535 2.457,-8.598 6.771,-8.598 4.347,0 6.803,4 6.803,8.819 0,4.22 -2.204,8.629 -6.771,8.629 C 2.268,8.85 0,4.661 0,0 m 16.472,0.347 c 0,-7.307 -4.441,-11.181 -9.858,-11.181 -5.606,0 -9.543,4.347 -9.543,10.772 0,6.739 4.189,11.148 9.858,11.148 5.795,0 9.543,-4.44 9.543,-10.739"
             inkscape:connector-curvature="0" /></g><g
           transform="translate(387.3212,201.6208)"
           id="g109"><path
             id="path111"
             style="fill:#464647;fill-opacity:1;fill-rule:nonzero;stroke:none"
             d="M 0,0 H -6.456 V 2.331 H 9.26 V 0 H 2.771 V -18.896 H 0 Z"
             inkscape:connector-curvature="0" /></g><g
           transform="translate(413.8739,192.6765)"
           id="g113"><path
             id="path115"
             style="fill:#464647;fill-opacity:1;fill-rule:nonzero;stroke:none"
             d="M 0,0 H -8.251 V -7.653 H 0.945 V -9.952 H -10.991 V 11.275 H 0.473 V 8.976 H -8.251 V 2.268 H 0 Z"
             inkscape:connector-curvature="0" /></g><g
           transform="translate(432.7099,191.5427)"
           id="g117"><path
             id="path119"
             style="fill:#464647;fill-opacity:1;fill-rule:nonzero;stroke:none"
             d="M 0,0 -2.078,6.11 C -2.551,7.495 -2.865,8.755 -3.181,9.983 H -3.243 C -3.559,8.724 -3.904,7.433 -4.314,6.142 L -6.393,0 Z m -6.96,-2.142 -2.204,-6.676 h -2.835 l 7.212,21.227 h 3.308 L 5.764,-8.818 H 2.835 l -2.268,6.676 z"
             inkscape:connector-curvature="0" /></g><g
           transform="translate(448.2733,193.9987)"
           id="g121"><path
             id="path123"
             style="fill:#464647;fill-opacity:1;fill-rule:nonzero;stroke:none"
             d="M 0,0 H 2.803 C 5.731,0 7.59,1.606 7.59,4.031 7.59,6.771 5.605,7.969 2.708,8 1.386,8 0.44,7.874 0,7.748 Z m -2.74,9.669 c 1.386,0.284 3.37,0.441 5.26,0.441 2.928,0 4.818,-0.536 6.141,-1.732 1.07,-0.944 1.669,-2.394 1.669,-4.031 0,-2.803 -1.764,-4.661 -4,-5.417 v -0.095 c 1.638,-0.566 2.614,-2.078 3.118,-4.283 0.693,-2.96 1.197,-5.007 1.638,-5.826 H 8.251 c -0.346,0.598 -0.818,2.424 -1.417,5.07 -0.63,2.929 -1.764,4.031 -4.252,4.126 H 0 v -9.196 h -2.74 z"
             inkscape:connector-curvature="0" /></g><g
           transform="translate(468.1806,193.2116)"
           id="g125"><path
             id="path127"
             style="fill:#464647;fill-opacity:1;fill-rule:nonzero;stroke:none"
             d="m 0,0 c 0,-4.535 2.457,-8.598 6.771,-8.598 4.346,0 6.803,4 6.803,8.819 0,4.22 -2.205,8.629 -6.771,8.629 C 2.268,8.85 0,4.661 0,0 m 16.472,0.347 c 0,-7.307 -4.441,-11.181 -9.858,-11.181 -5.606,0 -9.543,4.347 -9.543,10.772 0,6.739 4.189,11.148 9.858,11.148 5.795,0 9.543,-4.44 9.543,-10.739"
             inkscape:connector-curvature="0" /></g><g
           transform="translate(502.1044,191.5427)"
           id="g129"><path
             id="path131"
             style="fill:#464647;fill-opacity:1;fill-rule:nonzero;stroke:none"
             d="M 0,0 -2.079,6.11 C -2.552,7.495 -2.866,8.755 -3.182,9.983 H -3.244 C -3.56,8.724 -3.906,7.433 -4.315,6.142 L -6.394,0 Z M -6.961,-2.142 -9.165,-8.818 H -12 l 7.213,21.227 H -1.48 L 5.763,-8.818 H 2.834 l -2.268,6.676 z"
             inkscape:connector-curvature="0" /></g><g
           transform="translate(314.8465,384.3908)"
           id="g133"><path
             id="path135"
             style="fill:#464647;fill-opacity:1;fill-rule:nonzero;stroke:none"
             d="m 0,0 c 0.502,-0.369 4.572,-3.519 8.074,-7.763 4.617,-5.186 7.338,-10.714 7.338,-10.714 0.141,-0.206 -5.694,-7.022 -9.378,-16.626 -1.992,-5.269 -2.69,-11.388 -3.087,-17.28 -2.663,3.795 -5.271,9.775 -6.827,16.772 -1.36,6.601 -1.264,12.744 -1.162,14.448 C -4.73,-15.98 -4.362,-7.848 0,0"
             inkscape:connector-curvature="0" /></g><g
           transform="translate(308.0274,378.3128)"
           id="g137"><path
             id="path139"
             style="fill:#464647;fill-opacity:1;fill-rule:nonzero;stroke:none"
             d="m 0,0 c -1.971,-1.938 -4.575,-5.469 -6.781,-9.337 -1.679,-2.894 -2.936,-5.949 -3.953,-8.823 -1.806,-5.102 -3.139,-12.053 -2.766,-18.617 0.32,-5.844 1.203,-10.16 2.278,-13.557 1.233,-4.013 2.389,-6.503 3.87,-9.243 2.207,-4.085 4.858,-7.696 8.255,-11.307 2.908,-2.924 5.66,-5.289 8.498,-7.166 3.646,-2.508 6.549,-3.755 6.549,-3.755 0,0 -0.125,5.233 -0.086,8.828 0.037,3.47 0.263,7.544 0.48,10.175 0.094,1.298 0.217,2.148 0.217,2.148 -0.207,0.213 -0.342,0.314 -0.556,0.52 -2.358,2.275 -3.838,3.934 -5.573,6.037 -1.321,1.6 -2.689,3.537 -3.679,5.018 -1.179,1.905 -2.933,4.922 -3.952,7.234 -0.915,2.102 -1.707,3.951 -2.669,7.129 -0.877,3.168 -1.296,4.882 -1.764,8.069 -0.505,3.439 -0.574,5.334 -0.632,8.891 -0.051,3.191 0.293,6.939 0.793,10.673 C -0.839,-2.97 0,0 0,0"
             inkscape:connector-curvature="0" /></g><g
           transform="translate(389.7778,314.6141)"
           id="g141"><path
             id="path143"
             style="fill:#464647;fill-opacity:1;fill-rule:nonzero;stroke:none"
             d="m 0,0 c 2.122,3.223 3.277,5.375 4.752,8.946 2.402,5.815 3.307,10.781 3.746,15.388 0.297,3.332 0.297,7.068 -0.396,12.183 -0.863,4.642 -1.175,6.122 -2.609,10.102 -2.519,6.992 -5.069,10.639 -9.217,15.795 -2.516,3.128 -4.659,4.913 -7.858,7.515 -2.046,1.664 -5.597,3.744 -5.597,3.744 0,0 -7.253,-5.229 -13.911,-11.223 -3.198,-2.815 -12.114,-11.03 -17.052,-18.92 -2.377,-3.797 -4.062,-7.237 -5.47,-10.345 -3.086,-6.811 -4.55,-12.544 -5.767,-19.317 -1.018,-5.662 -2.137,-12.467 -2.335,-18.644 -0.269,-7.988 0,-14.703 0.042,-15.086 0.014,-0.12 4.698,-1.726 8.64,-2.462 2.349,-0.381 5.54,-1.216 13.67,-0.749 2.912,0.167 10.309,1.117 17.859,4.626 5.767,2.513 11.463,7.055 13.911,9.412 C -5.94,-7.445 -2.688,-4.083 0,0"
             inkscape:connector-curvature="0" /></g></g></g></g></svg>